G04*
G04 #@! TF.GenerationSoftware,Altium Limited,Altium Designer,23.3.1 (30)*
G04*
G04 Layer_Color=65535*
%FSLAX25Y25*%
%MOIN*%
G70*
G04*
G04 #@! TF.SameCoordinates,3938952C-0909-4C2D-B6D7-9D2AFB1CA47D*
G04*
G04*
G04 #@! TF.FilePolarity,Positive*
G04*
G01*
G75*
%ADD10C,0.00984*%
%ADD11C,0.01000*%
%ADD12C,0.00787*%
D10*
X551634Y349134D02*
G03*
X551634Y349134I-492J0D01*
G01*
X474134Y441634D02*
G03*
X474134Y441634I-492J0D01*
G01*
X531634Y299134D02*
G03*
X531634Y299134I-492J0D01*
G01*
X617205Y472500D02*
G03*
X617205Y472500I-492J0D01*
G01*
X571634Y299134D02*
G03*
X571634Y299134I-492J0D01*
G01*
X551634Y249134D02*
G03*
X551634Y249134I-492J0D01*
G01*
D11*
X539500Y434500D02*
X580000D01*
X539500Y473500D02*
X580000D01*
Y434500D02*
Y473500D01*
X539500Y434500D02*
Y473500D01*
Y424500D02*
Y434500D01*
Y424500D02*
X580000D01*
Y434500D01*
X539500D02*
X580000D01*
X549698Y424500D02*
Y434500D01*
X482500Y152000D02*
Y192500D01*
X472500D02*
X482500D01*
X472500Y152000D02*
Y192500D01*
Y152000D02*
X482500D01*
X472500Y182302D02*
X482500D01*
X595000Y175000D02*
Y195000D01*
X605000Y175000D02*
Y195000D01*
X595000Y175000D02*
X605000D01*
X595000Y195000D02*
X605000D01*
X595000Y184802D02*
X605000D01*
X477500Y339802D02*
X487500D01*
X477500Y350000D02*
X487500D01*
X477500Y330000D02*
X487500D01*
Y350000D01*
X477500Y330000D02*
Y350000D01*
Y387698D02*
X487500D01*
X477500Y377500D02*
X487500D01*
X477500Y397500D02*
X487500D01*
X477500Y377500D02*
Y397500D01*
X487500Y377500D02*
Y397500D01*
X477500Y295198D02*
X487500D01*
X477500Y285000D02*
X487500D01*
X477500Y305000D02*
X487500D01*
X477500Y285000D02*
Y305000D01*
X487500Y285000D02*
Y305000D01*
X564302Y203000D02*
Y213000D01*
X503000Y203000D02*
X574500D01*
X503000D02*
Y213000D01*
X574500D01*
Y203000D02*
Y213000D01*
Y115000D02*
Y203000D01*
X503000Y115000D02*
Y203000D01*
Y115000D02*
X574500D01*
X503000Y203000D02*
X574500D01*
X630000Y184802D02*
X640000D01*
X630000Y195000D02*
X640000D01*
X630000Y175000D02*
X640000D01*
Y195000D01*
X630000Y175000D02*
Y195000D01*
X612500Y184802D02*
X622500D01*
X612500Y195000D02*
X622500D01*
X612500Y175000D02*
X622500D01*
Y195000D01*
X612500Y175000D02*
Y195000D01*
X546999Y455998D02*
X545999Y456998D01*
X544000D01*
X543000Y455998D01*
Y454999D01*
X544000Y453999D01*
X545999D01*
X546999Y452999D01*
Y452000D01*
X545999Y451000D01*
X544000D01*
X543000Y452000D01*
X552997Y454999D02*
X549998D01*
X548998Y453999D01*
Y452000D01*
X549998Y451000D01*
X552997D01*
X554996Y454999D02*
Y451000D01*
Y452999D01*
X555996Y453999D01*
X556995Y454999D01*
X557995D01*
X563993Y451000D02*
X561994D01*
X560994Y452000D01*
Y453999D01*
X561994Y454999D01*
X563993D01*
X564993Y453999D01*
Y452999D01*
X560994D01*
X569991Y451000D02*
X567992D01*
X566992Y452000D01*
Y453999D01*
X567992Y454999D01*
X569991D01*
X570991Y453999D01*
Y452999D01*
X566992D01*
X572990Y451000D02*
Y454999D01*
X575989D01*
X576989Y453999D01*
Y451000D01*
X586000Y146165D02*
Y141166D01*
X588499D01*
X589332Y141999D01*
Y142832D01*
Y143665D01*
X588499Y144498D01*
X586000D01*
X590998D02*
Y141999D01*
X591831Y141166D01*
X594331D01*
Y140333D01*
X593498Y139500D01*
X592664D01*
X594331Y141166D02*
Y144498D01*
X593666Y207333D02*
X594999D01*
X595666Y207999D01*
Y209332D01*
X594999Y209999D01*
X593666D01*
X593000Y209332D01*
Y207999D01*
X593666Y207333D01*
X596999Y206000D02*
Y209999D01*
X598998D01*
X599664Y209332D01*
Y207999D01*
X598998Y207333D01*
X596999D01*
X602997D02*
X601664D01*
X600997Y207999D01*
Y209332D01*
X601664Y209999D01*
X602997D01*
X603663Y209332D01*
Y208666D01*
X600997D01*
X604996Y207333D02*
Y209999D01*
X606995D01*
X607662Y209332D01*
Y207333D01*
X613660D02*
Y210665D01*
Y209332D01*
X612993D01*
X614326D01*
X613660D01*
Y210665D01*
X614326Y211332D01*
X616992Y207333D02*
X618325D01*
X618992Y207999D01*
Y209332D01*
X618325Y209999D01*
X616992D01*
X616326Y209332D01*
Y207999D01*
X616992Y207333D01*
X620325Y209999D02*
Y207333D01*
Y208666D01*
X620991Y209332D01*
X621657Y209999D01*
X622324D01*
X630988D02*
X628988D01*
X628322Y209332D01*
Y207999D01*
X628988Y207333D01*
X630988D01*
X632987D02*
X634320D01*
X634986Y207999D01*
Y209332D01*
X634320Y209999D01*
X632987D01*
X632321Y209332D01*
Y207999D01*
X632987Y207333D01*
X636319D02*
Y209999D01*
X638319D01*
X638985Y209332D01*
Y207333D01*
X640984D02*
Y210665D01*
Y209332D01*
X640318D01*
X641651D01*
X640984D01*
Y210665D01*
X641651Y211332D01*
X466166Y291832D02*
X465499Y292499D01*
X464166D01*
X463500Y291832D01*
Y289166D01*
X464166Y288500D01*
X465499D01*
X466166Y289166D01*
Y290499D01*
X464833D01*
X467499Y288500D02*
Y292499D01*
X470164Y288500D01*
Y292499D01*
X471497D02*
Y288500D01*
X473497D01*
X474163Y289166D01*
Y291832D01*
X473497Y292499D01*
X471497D01*
X461000Y301832D02*
X461666Y302499D01*
X462999D01*
X463666Y301832D01*
Y301166D01*
X462999Y300499D01*
X462333D01*
X462999D01*
X463666Y299833D01*
Y299166D01*
X462999Y298500D01*
X461666D01*
X461000Y299166D01*
X464999Y298500D02*
Y299166D01*
X465665D01*
Y298500D01*
X464999D01*
X468331Y301832D02*
X468997Y302499D01*
X470330D01*
X470997Y301832D01*
Y301166D01*
X470330Y300499D01*
X469664D01*
X470330D01*
X470997Y299833D01*
Y299166D01*
X470330Y298500D01*
X468997D01*
X468331Y299166D01*
X472330Y302499D02*
Y299833D01*
X473663Y298500D01*
X474996Y299833D01*
Y302499D01*
X466166Y336832D02*
X465499Y337499D01*
X464166D01*
X463500Y336832D01*
Y336166D01*
X464166Y335499D01*
X465499D01*
X466166Y334833D01*
Y334166D01*
X465499Y333500D01*
X464166D01*
X463500Y334166D01*
X467499Y337499D02*
Y333500D01*
X469498D01*
X470164Y334166D01*
Y336832D01*
X469498Y337499D01*
X467499D01*
X471497Y333500D02*
Y336166D01*
X472830Y337499D01*
X474163Y336166D01*
Y333500D01*
Y335499D01*
X471497D01*
X466166Y346832D02*
X465499Y347499D01*
X464166D01*
X463500Y346832D01*
Y346166D01*
X464166Y345499D01*
X465499D01*
X466166Y344833D01*
Y344166D01*
X465499Y343500D01*
X464166D01*
X463500Y344166D01*
X470164Y346832D02*
X469498Y347499D01*
X468165D01*
X467499Y346832D01*
Y344166D01*
X468165Y343500D01*
X469498D01*
X470164Y344166D01*
X471497Y347499D02*
Y343500D01*
X474163D01*
X463500Y381000D02*
Y384999D01*
X465499D01*
X466166Y384332D01*
Y382999D01*
X465499Y382333D01*
X463500D01*
X467499Y381000D02*
X468832D01*
X468165D01*
Y384999D01*
X467499Y384332D01*
X470831D02*
X471497Y384999D01*
X472830D01*
X473497Y384332D01*
Y383666D01*
X472830Y382999D01*
X473497Y382333D01*
Y381666D01*
X472830Y381000D01*
X471497D01*
X470831Y381666D01*
Y382333D01*
X471497Y382999D01*
X470831Y383666D01*
Y384332D01*
X471497Y382999D02*
X472830D01*
X466166Y394332D02*
X465499Y394999D01*
X464166D01*
X463500Y394332D01*
Y391666D01*
X464166Y391000D01*
X465499D01*
X466166Y391666D01*
Y392999D01*
X464833D01*
X467499Y391000D02*
Y394999D01*
X470164Y391000D01*
Y394999D01*
X471497D02*
Y391000D01*
X473497D01*
X474163Y391666D01*
Y394332D01*
X473497Y394999D01*
X471497D01*
X589332Y123500D02*
X588499Y124333D01*
X587666Y123500D01*
X586833D01*
X586000Y124333D01*
Y125166D01*
X586833Y125999D01*
X586000Y126832D01*
Y127665D01*
X586833Y128498D01*
X587666D01*
X588499Y127665D01*
Y126832D01*
X587666Y125999D01*
X588499Y125166D01*
Y124333D01*
X589332Y125999D02*
X588499Y125166D01*
X586833Y125999D02*
X587666D01*
X595997Y123500D02*
X598496D01*
X599329Y124333D01*
X598496Y125166D01*
X596830D01*
X595997Y125999D01*
X596830Y126832D01*
X599329D01*
X600995Y123500D02*
X602661D01*
X601828D01*
Y126832D01*
X600995D01*
X605161Y123500D02*
Y126832D01*
X605994D01*
X606827Y125999D01*
Y123500D01*
Y125999D01*
X607660Y126832D01*
X608493Y125999D01*
Y123500D01*
X610992D02*
X612658D01*
X613491Y124333D01*
Y125999D01*
X612658Y126832D01*
X610992D01*
X610159Y125999D01*
Y124333D01*
X610992Y123500D01*
X615157D02*
Y126832D01*
X617656D01*
X618490Y125999D01*
Y123500D01*
X586000Y137664D02*
Y132666D01*
X588499D01*
X589332Y133499D01*
Y134332D01*
Y135165D01*
X588499Y135998D01*
X586000D01*
X591831D02*
X593498D01*
X594331Y135165D01*
Y132666D01*
X591831D01*
X590998Y133499D01*
X591831Y134332D01*
X594331D01*
X595997Y132666D02*
X598496D01*
X599329Y133499D01*
X598496Y134332D01*
X596830D01*
X595997Y135165D01*
X596830Y135998D01*
X599329D01*
X601828Y136831D02*
Y135998D01*
X600995D01*
X602661D01*
X601828D01*
Y133499D01*
X602661Y132666D01*
X605161D02*
X606827D01*
X605994D01*
Y135998D01*
X605161D01*
X609326Y131833D02*
X612658D01*
X617656Y137664D02*
Y132666D01*
X615157D01*
X614324Y133499D01*
Y135165D01*
X615157Y135998D01*
X617656D01*
X621822Y132666D02*
X620156D01*
X619322Y133499D01*
Y135165D01*
X620156Y135998D01*
X621822D01*
X622655Y135165D01*
Y134332D01*
X619322D01*
X624321Y137664D02*
Y132666D01*
X626820D01*
X627653Y133499D01*
Y134332D01*
Y135165D01*
X626820Y135998D01*
X624321D01*
X629319D02*
Y133499D01*
X630152Y132666D01*
X632652D01*
Y135998D01*
X635984Y131000D02*
X636817D01*
X637650Y131833D01*
Y135998D01*
X635151D01*
X634318Y135165D01*
Y133499D01*
X635151Y132666D01*
X637650D01*
X586000Y160998D02*
Y151000D01*
Y159570D02*
X586952Y160522D01*
X587904Y160998D01*
X589333D01*
X590285Y160522D01*
X591237Y159570D01*
X591713Y158141D01*
Y157189D01*
X591237Y155761D01*
X590285Y154809D01*
X589333Y154333D01*
X587904D01*
X586952Y154809D01*
X586000Y155761D01*
X599569Y160998D02*
Y154333D01*
Y159570D02*
X598616Y160522D01*
X597664Y160998D01*
X596236D01*
X595284Y160522D01*
X594332Y159570D01*
X593855Y158141D01*
Y157189D01*
X594332Y155761D01*
X595284Y154809D01*
X596236Y154333D01*
X597664D01*
X598616Y154809D01*
X599569Y155761D01*
X607948Y160998D02*
Y153380D01*
X607472Y151952D01*
X606995Y151476D01*
X606043Y151000D01*
X604615D01*
X603663Y151476D01*
X607948Y159570D02*
X606995Y160522D01*
X606043Y160998D01*
X604615D01*
X603663Y160522D01*
X602711Y159570D01*
X602235Y158141D01*
Y157189D01*
X602711Y155761D01*
X603663Y154809D01*
X604615Y154333D01*
X606043D01*
X606995Y154809D01*
X607948Y155761D01*
X610614Y158141D02*
X616327D01*
Y159093D01*
X615851Y160046D01*
X615375Y160522D01*
X614423Y160998D01*
X612994D01*
X612042Y160522D01*
X611090Y159570D01*
X610614Y158141D01*
Y157189D01*
X611090Y155761D01*
X612042Y154809D01*
X612994Y154333D01*
X614423D01*
X615375Y154809D01*
X616327Y155761D01*
X618469Y160998D02*
Y154333D01*
Y158141D02*
X618945Y159570D01*
X619898Y160522D01*
X620850Y160998D01*
X622278D01*
X631038D02*
X633894Y154333D01*
X636751Y160998D02*
X633894Y154333D01*
X638370Y162426D02*
X639322Y162902D01*
X640750Y164330D01*
Y154333D01*
X541998Y191500D02*
X536000D01*
Y187501D01*
X541998Y182503D02*
Y184502D01*
X540998Y185502D01*
X537000D01*
X536000Y184502D01*
Y182503D01*
X537000Y181503D01*
X540998D01*
X541998Y182503D01*
X536000Y179504D02*
X541998D01*
Y176505D01*
X540998Y175505D01*
X538999D01*
X537999Y176505D01*
Y179504D01*
Y177505D02*
X536000Y175505D01*
Y173506D02*
X539999D01*
X541998Y171507D01*
X539999Y169507D01*
X536000D01*
X538999D01*
Y173506D01*
X536000Y161510D02*
X541998D01*
X539999Y159510D01*
X541998Y157511D01*
X536000D01*
Y154512D02*
Y152513D01*
X537000Y151513D01*
X538999D01*
X539999Y152513D01*
Y154512D01*
X538999Y155512D01*
X537000D01*
X536000Y154512D01*
X541998Y145515D02*
X536000D01*
Y148514D01*
X537000Y149514D01*
X538999D01*
X539999Y148514D01*
Y145515D01*
Y143516D02*
X537000D01*
X536000Y142516D01*
Y139517D01*
X539999D01*
X536000Y137517D02*
Y135518D01*
Y136518D01*
X541998D01*
Y137517D01*
X536000Y129520D02*
Y131519D01*
X537000Y132519D01*
X538999D01*
X539999Y131519D01*
Y129520D01*
X538999Y128520D01*
X537999D01*
Y132519D01*
X468999Y196992D02*
X463001D01*
Y192993D01*
X468999Y187995D02*
Y189994D01*
X467999Y190994D01*
X464001D01*
X463001Y189994D01*
Y187995D01*
X464001Y186995D01*
X467999D01*
X468999Y187995D01*
X463001Y184996D02*
X468999D01*
Y181997D01*
X467999Y180997D01*
X466000D01*
X465000Y181997D01*
Y184996D01*
Y182996D02*
X463001Y180997D01*
Y178998D02*
X467000D01*
X468999Y176998D01*
X467000Y174999D01*
X463001D01*
X466000D01*
Y178998D01*
X467000Y163003D02*
Y166002D01*
X466000Y167002D01*
X464001D01*
X463001Y166002D01*
Y163003D01*
Y160004D02*
Y158004D01*
X464001Y157005D01*
X466000D01*
X467000Y158004D01*
Y160004D01*
X466000Y161003D01*
X464001D01*
X463001Y160004D01*
Y155006D02*
X467000D01*
Y152006D01*
X466000Y151007D01*
X463001D01*
Y148008D02*
X467999D01*
X466000D01*
Y149007D01*
Y147008D01*
Y148008D01*
X467999D01*
X468999Y147008D01*
X567504Y343001D02*
Y348999D01*
X570503D01*
X571503Y347999D01*
Y346000D01*
X570503Y345000D01*
X567504D01*
X569503D02*
X571503Y343001D01*
X573502D02*
X575501D01*
X574502D01*
Y346999D01*
X573502D01*
X580500Y341001D02*
X581499D01*
X582499Y342001D01*
Y346999D01*
X579500D01*
X578501Y346000D01*
Y344000D01*
X579500Y343001D01*
X582499D01*
X584499Y348999D02*
Y343001D01*
Y346000D01*
X585498Y346999D01*
X587498D01*
X588497Y346000D01*
Y343001D01*
X591496Y347999D02*
Y346999D01*
X590497D01*
X592496D01*
X591496D01*
Y344000D01*
X592496Y343001D01*
X543505Y392001D02*
Y397999D01*
X546504D01*
X547504Y396999D01*
Y395000D01*
X546504Y394000D01*
X543505D01*
X545505D02*
X547504Y392001D01*
X552502D02*
X550503D01*
X549503Y393001D01*
Y395000D01*
X550503Y396000D01*
X552502D01*
X553502Y395000D01*
Y394000D01*
X549503D01*
X556501Y396999D02*
Y396000D01*
X555502D01*
X557501D01*
X556501D01*
Y393001D01*
X557501Y392001D01*
X560500Y396000D02*
Y393001D01*
X561500Y392001D01*
X564499D01*
Y396000D01*
X566498D02*
Y392001D01*
Y394000D01*
X567498Y395000D01*
X568497Y396000D01*
X569497D01*
X572496Y392001D02*
Y396000D01*
X575495D01*
X576495Y395000D01*
Y392001D01*
X466505Y490499D02*
X465506Y491499D01*
X463506D01*
X462506Y490499D01*
Y489500D01*
X463506Y488500D01*
X465506D01*
X466505Y487500D01*
Y486501D01*
X465506Y485501D01*
X463506D01*
X462506Y486501D01*
X468504Y491499D02*
Y485501D01*
X470504Y487500D01*
X472503Y485501D01*
Y491499D01*
X474503Y485501D02*
Y491499D01*
X477502D01*
X478501Y490499D01*
Y488500D01*
X477502Y487500D01*
X474503D01*
X483500Y491499D02*
X481500D01*
X480501Y490499D01*
Y486501D01*
X481500Y485501D01*
X483500D01*
X484499Y486501D01*
Y490499D01*
X483500Y491499D01*
X486499D02*
Y485501D01*
X488498Y487500D01*
X490497Y485501D01*
Y491499D01*
X496495D02*
X492497D01*
Y485501D01*
X496495D01*
X492497Y488500D02*
X494496D01*
X498495Y485501D02*
Y491499D01*
X501494D01*
X502493Y490499D01*
Y488500D01*
X501494Y487500D01*
X498495D01*
X500494D02*
X502493Y485501D01*
X530503Y347999D02*
Y342001D01*
X534502D01*
X539500D02*
X537501D01*
X536501Y343001D01*
Y345000D01*
X537501Y346000D01*
X539500D01*
X540500Y345000D01*
Y344000D01*
X536501D01*
X543499Y342001D02*
Y346999D01*
Y345000D01*
X542499D01*
X544498D01*
X543499D01*
Y346999D01*
X544498Y347999D01*
X548497Y346999D02*
Y346000D01*
X547498D01*
X549497D01*
X548497D01*
Y343001D01*
X549497Y342001D01*
X551003Y297999D02*
X547004D01*
Y292001D01*
X551003D01*
X547004Y295000D02*
X549004D01*
X553002Y292001D02*
Y296000D01*
X556001D01*
X557001Y295000D01*
Y292001D01*
X560000Y296999D02*
Y296000D01*
X559000D01*
X561000D01*
X560000D01*
Y293001D01*
X561000Y292001D01*
X566998D02*
X564998D01*
X563999Y293001D01*
Y295000D01*
X564998Y296000D01*
X566998D01*
X567997Y295000D01*
Y294000D01*
X563999D01*
X569997Y296000D02*
Y292001D01*
Y294000D01*
X570997Y295000D01*
X571996Y296000D01*
X572996D01*
X594668Y198001D02*
Y201999D01*
X596668D01*
X597334Y201333D01*
Y200000D01*
X596668Y199334D01*
X594668D01*
X598667Y198001D02*
Y201999D01*
X600666D01*
X601333Y201333D01*
Y200000D01*
X600666Y199334D01*
X598667D01*
X600000D02*
X601333Y198001D01*
X602666Y201333D02*
X603332Y201999D01*
X604665D01*
X605332Y201333D01*
Y200666D01*
X604665Y200000D01*
X603999D01*
X604665D01*
X605332Y199334D01*
Y198667D01*
X604665Y198001D01*
X603332D01*
X602666Y198667D01*
X612668Y198001D02*
Y201999D01*
X614668D01*
X615334Y201333D01*
Y200000D01*
X614668Y199334D01*
X612668D01*
X616667Y198001D02*
Y201999D01*
X618666D01*
X619333Y201333D01*
Y200000D01*
X618666Y199334D01*
X616667D01*
X618000D02*
X619333Y198001D01*
X623332D02*
X620666D01*
X623332Y200666D01*
Y201333D01*
X622665Y201999D01*
X621332D01*
X620666Y201333D01*
X629335Y198001D02*
Y201999D01*
X631334D01*
X632001Y201333D01*
Y200000D01*
X631334Y199334D01*
X629335D01*
X633334Y198001D02*
Y201999D01*
X635333D01*
X635999Y201333D01*
Y200000D01*
X635333Y199334D01*
X633334D01*
X634666D02*
X635999Y198001D01*
X637332D02*
X638665D01*
X637999D01*
Y201999D01*
X637332Y201333D01*
X469004Y309501D02*
Y315499D01*
X472003D01*
X473003Y314499D01*
Y312500D01*
X472003Y311500D01*
X469004D01*
X476002Y309501D02*
X478001D01*
X479001Y310501D01*
Y312500D01*
X478001Y313500D01*
X476002D01*
X475002Y312500D01*
Y310501D01*
X476002Y309501D01*
X481001Y313500D02*
Y310501D01*
X482000Y309501D01*
X483000Y310501D01*
X483999Y309501D01*
X484999Y310501D01*
Y313500D01*
X489998Y309501D02*
X487998D01*
X486999Y310501D01*
Y312500D01*
X487998Y313500D01*
X489998D01*
X490997Y312500D01*
Y311500D01*
X486999D01*
X492997Y313500D02*
Y309501D01*
Y311500D01*
X493996Y312500D01*
X494996Y313500D01*
X495996D01*
X466005Y407999D02*
Y402001D01*
X469004D01*
X470004Y403001D01*
Y404000D01*
X469004Y405000D01*
X466005D01*
X469004D01*
X470004Y406000D01*
Y406999D01*
X469004Y407999D01*
X466005D01*
X472003Y406000D02*
Y403001D01*
X473003Y402001D01*
X476002D01*
Y406000D01*
X478001D02*
X482000D01*
X478001Y402001D01*
X482000D01*
X483999Y406000D02*
X487998D01*
X483999Y402001D01*
X487998D01*
X492997D02*
X490997D01*
X489998Y403001D01*
Y405000D01*
X490997Y406000D01*
X492997D01*
X493996Y405000D01*
Y404000D01*
X489998D01*
X495996Y406000D02*
Y402001D01*
Y404000D01*
X496995Y405000D01*
X497995Y406000D01*
X498995D01*
X563453Y108951D02*
Y107951D01*
X562454D01*
Y108951D01*
X563453D01*
X622003Y484499D02*
Y478501D01*
X626001D01*
X631999Y484499D02*
X628001D01*
Y478501D01*
X631999D01*
X628001Y481500D02*
X630000D01*
X633999Y484499D02*
Y478501D01*
X636998D01*
X637997Y479501D01*
Y483499D01*
X636998Y484499D01*
X633999D01*
X475002Y360499D02*
X477002D01*
X476002D01*
Y354501D01*
X475002D01*
X477002D01*
X483999D02*
X480001D01*
X483999Y358500D01*
Y359499D01*
X483000Y360499D01*
X481001D01*
X480001Y359499D01*
X489998D02*
X488998Y360499D01*
X486999D01*
X485999Y359499D01*
Y355501D01*
X486999Y354501D01*
X488998D01*
X489998Y355501D01*
D12*
X555177Y358189D02*
X564823D01*
X571811Y358878D02*
Y381122D01*
X555177Y381811D02*
X564823D01*
X548189Y358878D02*
Y381122D01*
X477677Y450689D02*
X487323D01*
X494311Y451378D02*
Y473622D01*
X477677Y474311D02*
X487323D01*
X470689Y451378D02*
Y473622D01*
X535177Y308189D02*
X544823D01*
X551811Y308878D02*
Y331122D01*
X535177Y331811D02*
X544823D01*
X528189Y308878D02*
Y331122D01*
X627539Y468957D02*
X632461D01*
X627539Y476043D02*
X632461D01*
X575177Y308189D02*
X584823D01*
X591811Y308878D02*
Y331122D01*
X575177Y331811D02*
X584823D01*
X568189Y308878D02*
Y331122D01*
X555177Y258189D02*
X564823D01*
X571811Y258878D02*
Y281122D01*
X555177Y281811D02*
X564823D01*
X548189Y258878D02*
Y281122D01*
M02*
