G04*
G04 #@! TF.GenerationSoftware,Altium Limited,Altium Designer,23.3.1 (30)*
G04*
G04 Layer_Color=32896*
%FSLAX25Y25*%
%MOIN*%
G70*
G04*
G04 #@! TF.SameCoordinates,3938952C-0909-4C2D-B6D7-9D2AFB1CA47D*
G04*
G04*
G04 #@! TF.FilePolarity,Positive*
G04*
G01*
G75*
%ADD11C,0.01000*%
%ADD12C,0.00787*%
%ADD28C,0.00500*%
G36*
X555000Y170750D02*
Y170500D01*
Y170000D01*
X553000D01*
Y172000D01*
X555000D01*
Y170750D01*
D02*
G37*
G36*
X563000Y168000D02*
X561000D01*
Y170000D01*
X563000D01*
Y168000D01*
D02*
G37*
G36*
X559000D02*
X557000D01*
Y170250D01*
Y170500D01*
Y172000D01*
X559000D01*
Y168000D01*
D02*
G37*
G36*
X545000D02*
X547000D01*
Y167750D01*
Y167500D01*
Y166000D01*
X549000D01*
Y164000D01*
X547000D01*
Y162000D01*
X549000D01*
Y161500D01*
Y161250D01*
Y160000D01*
X551000D01*
Y158000D01*
X549000D01*
Y160000D01*
X547000D01*
Y162000D01*
X545000D01*
Y164000D01*
X541000D01*
Y166000D01*
X537000D01*
Y168000D01*
X541000D01*
Y166000D01*
X545000D01*
Y168000D01*
X543000D01*
Y170000D01*
X545000D01*
Y168000D01*
D02*
G37*
G36*
X551000Y170000D02*
X553000D01*
Y168000D01*
X555000D01*
Y166250D01*
Y166000D01*
Y164000D01*
X551000D01*
Y166000D01*
X549000D01*
Y168000D01*
X547000D01*
Y170000D01*
X545000D01*
Y172000D01*
X551000D01*
Y170000D01*
D02*
G37*
G36*
X541000Y162000D02*
X539000D01*
Y164000D01*
X541000D01*
Y162000D01*
D02*
G37*
G36*
X579000Y158000D02*
X565000D01*
Y158250D01*
Y172000D01*
X579000D01*
Y158000D01*
D02*
G37*
G36*
X563000Y164000D02*
X561000D01*
Y162000D01*
X563000D01*
Y158000D01*
X561000D01*
Y160000D01*
X559000D01*
Y164000D01*
X557000D01*
Y166000D01*
X563000D01*
Y164000D01*
D02*
G37*
G36*
X543000Y158000D02*
X541000D01*
Y159000D01*
Y159250D01*
Y160000D01*
X543000D01*
Y158000D01*
D02*
G37*
G36*
X535000D02*
X521000D01*
Y172000D01*
X535000D01*
Y158000D01*
D02*
G37*
G36*
X557000Y160000D02*
X559000D01*
Y158000D01*
X561000D01*
Y156000D01*
X567000D01*
Y154000D01*
X569000D01*
Y152000D01*
X571000D01*
Y152750D01*
Y153000D01*
Y154000D01*
X569000D01*
Y156000D01*
X579000D01*
Y152000D01*
X577000D01*
Y154000D01*
X575000D01*
Y150000D01*
X579000D01*
Y141250D01*
Y141000D01*
Y130000D01*
X577000D01*
Y136000D01*
X575000D01*
Y134000D01*
X573000D01*
Y140000D01*
X571000D01*
Y138000D01*
X569000D01*
Y132000D01*
X575000D01*
Y130000D01*
X565000D01*
Y132000D01*
X563000D01*
Y136000D01*
X567000D01*
Y138000D01*
X565000D01*
Y140000D01*
X569000D01*
Y142000D01*
X563000D01*
Y138000D01*
X561000D01*
Y142000D01*
X557000D01*
Y140000D01*
X559000D01*
Y138000D01*
X555000D01*
Y142000D01*
X553000D01*
Y144000D01*
X559000D01*
Y146000D01*
X557000D01*
Y148000D01*
X561000D01*
Y144000D01*
X569000D01*
Y146000D01*
X571000D01*
Y148000D01*
X569000D01*
Y152000D01*
X567000D01*
Y154000D01*
X565000D01*
Y152000D01*
X567000D01*
Y150000D01*
X565000D01*
Y152000D01*
X561000D01*
Y154000D01*
X559000D01*
Y156000D01*
X557000D01*
Y154000D01*
X559000D01*
Y152500D01*
Y152250D01*
Y150000D01*
X557000D01*
Y154000D01*
X555000D01*
Y158000D01*
X553000D01*
Y160000D01*
Y160250D01*
Y162000D01*
X557000D01*
Y160000D01*
D02*
G37*
G36*
X523000Y148000D02*
X521000D01*
Y150000D01*
X523000D01*
Y148000D01*
D02*
G37*
G36*
X567000Y146000D02*
X563000D01*
Y146250D01*
Y148000D01*
X567000D01*
Y146000D01*
D02*
G37*
G36*
X545000Y160000D02*
X547000D01*
Y156000D01*
X549000D01*
Y152000D01*
X551000D01*
Y154000D01*
X555000D01*
Y152000D01*
X553000D01*
Y150000D01*
X555000D01*
Y149500D01*
Y149250D01*
Y146000D01*
X553000D01*
Y148000D01*
X551000D01*
Y150000D01*
X547000D01*
Y154000D01*
X545000D01*
Y160000D01*
X543000D01*
Y160500D01*
Y160750D01*
Y162000D01*
X545000D01*
Y160000D01*
D02*
G37*
G36*
X539000Y158000D02*
X541000D01*
Y156000D01*
X539000D01*
Y154000D01*
X543000D01*
Y152000D01*
X545000D01*
Y150000D01*
X547000D01*
Y148000D01*
X551000D01*
Y146000D01*
X549000D01*
Y142000D01*
X551000D01*
Y140000D01*
X549000D01*
Y142000D01*
X547000D01*
Y140000D01*
X549000D01*
Y138000D01*
X555000D01*
Y136000D01*
X553000D01*
Y134000D01*
X555000D01*
Y130000D01*
X553000D01*
Y132000D01*
X551000D01*
Y134000D01*
X549000D01*
Y138000D01*
X547000D01*
Y136000D01*
X545000D01*
Y140000D01*
X539000D01*
Y138000D01*
X541000D01*
Y134000D01*
X543000D01*
Y132000D01*
X539000D01*
Y130000D01*
X543000D01*
Y128000D01*
X545000D01*
Y126000D01*
X547000D01*
Y124000D01*
X549000D01*
Y122000D01*
X555000D01*
Y120000D01*
X553000D01*
Y118000D01*
X555000D01*
Y114000D01*
X553000D01*
Y116000D01*
X551000D01*
Y118000D01*
X547000D01*
Y116000D01*
X551000D01*
Y114000D01*
X547000D01*
Y116000D01*
X545000D01*
Y118000D01*
X543000D01*
Y120000D01*
X545000D01*
Y126000D01*
X543000D01*
Y128000D01*
X541000D01*
Y126000D01*
X543000D01*
Y124000D01*
X541000D01*
Y126000D01*
X539000D01*
Y120000D01*
X541000D01*
Y118750D01*
Y118500D01*
Y118000D01*
X543000D01*
Y116000D01*
X545000D01*
Y114000D01*
X533000D01*
Y116000D01*
X535000D01*
Y118000D01*
X531000D01*
Y122000D01*
X529000D01*
Y126000D01*
X527000D01*
Y122000D01*
X521000D01*
Y126000D01*
X525000D01*
Y128000D01*
X523000D01*
Y132000D01*
X521000D01*
Y134000D01*
X525000D01*
Y132000D01*
X529000D01*
Y134000D01*
X525000D01*
Y136000D01*
X523000D01*
Y137500D01*
Y137750D01*
Y138000D01*
X525000D01*
Y136000D01*
X527000D01*
Y138000D01*
X531000D01*
Y138250D01*
Y138500D01*
Y140000D01*
X529000D01*
Y142000D01*
X525000D01*
Y140000D01*
X521000D01*
Y144000D01*
X523000D01*
Y146000D01*
X525000D01*
Y144000D01*
X527000D01*
Y146000D01*
X529000D01*
Y145000D01*
Y144750D01*
Y142000D01*
X535000D01*
Y140000D01*
X533000D01*
Y136000D01*
X529000D01*
Y134000D01*
X539000D01*
Y136000D01*
X537000D01*
Y142000D01*
X539000D01*
Y144000D01*
X535000D01*
Y146000D01*
X529000D01*
Y148000D01*
X527000D01*
Y149500D01*
Y149750D01*
Y150000D01*
X525000D01*
Y152000D01*
X523000D01*
Y156000D01*
X525000D01*
Y154000D01*
Y153750D01*
Y152000D01*
X527000D01*
Y156000D01*
X529000D01*
Y154000D01*
X531000D01*
Y156000D01*
X533000D01*
Y150000D01*
X537000D01*
Y148000D01*
X539000D01*
Y144000D01*
X547000D01*
Y148000D01*
X543000D01*
Y146000D01*
X541000D01*
Y148000D01*
X539000D01*
Y152000D01*
X535000D01*
Y156000D01*
X537000D01*
Y160000D01*
X539000D01*
Y158000D01*
D02*
G37*
G36*
X545000Y134000D02*
X543000D01*
Y134250D01*
Y134500D01*
Y136000D01*
X545000D01*
Y134000D01*
D02*
G37*
G36*
X559000Y132000D02*
X561000D01*
Y130000D01*
X563000D01*
Y126000D01*
X561000D01*
Y127750D01*
Y128000D01*
Y130000D01*
X557000D01*
Y134000D01*
X559000D01*
Y132000D01*
D02*
G37*
G36*
X551000Y130500D02*
Y130250D01*
Y130000D01*
X547000D01*
Y128000D01*
X549000D01*
Y126000D01*
X551000D01*
Y124000D01*
X549000D01*
Y126000D01*
X547000D01*
Y128000D01*
X545000D01*
Y132000D01*
X551000D01*
Y130500D01*
D02*
G37*
G36*
X523000Y116000D02*
X521000D01*
Y116500D01*
Y116750D01*
Y118000D01*
X523000D01*
Y116000D01*
D02*
G37*
G36*
X579000Y114000D02*
X565000D01*
Y128000D01*
X579000D01*
Y114000D01*
D02*
G37*
G36*
X557000Y126000D02*
X561000D01*
Y124000D01*
X563000D01*
Y114000D01*
X559000D01*
Y116000D01*
X557000D01*
Y118000D01*
X559000D01*
Y120000D01*
X561000D01*
Y124000D01*
X559000D01*
Y122000D01*
X555000D01*
Y126000D01*
X553000D01*
Y128000D01*
X557000D01*
Y126000D01*
D02*
G37*
G36*
X527000Y118000D02*
X529000D01*
Y116000D01*
X531000D01*
Y114000D01*
X525000D01*
Y118000D01*
X523000D01*
Y120000D01*
X527000D01*
Y118000D01*
D02*
G37*
%LPC*%
G36*
X553000Y168000D02*
X551000D01*
Y166000D01*
X553000D01*
Y168000D01*
D02*
G37*
G36*
X577000Y170000D02*
X567000D01*
Y160000D01*
X577000D01*
Y170000D01*
D02*
G37*
%LPD*%
G36*
X575000Y162000D02*
X569000D01*
Y168000D01*
X575000D01*
Y162000D01*
D02*
G37*
%LPC*%
G36*
X533000Y170000D02*
X523000D01*
Y160000D01*
X533000D01*
Y170000D01*
D02*
G37*
%LPD*%
G36*
X531000Y162000D02*
X525000D01*
Y168000D01*
X531000D01*
Y162000D01*
D02*
G37*
%LPC*%
G36*
X557000Y160000D02*
X555000D01*
Y158000D01*
X557000D01*
Y160000D01*
D02*
G37*
G36*
X573000Y144000D02*
X571000D01*
Y142000D01*
X573000D01*
Y144000D01*
D02*
G37*
G36*
X575000Y150000D02*
X571000D01*
Y148000D01*
X573000D01*
Y144000D01*
X575000D01*
Y138000D01*
X577000D01*
Y146000D01*
X575000D01*
Y150000D01*
D02*
G37*
G36*
X567000Y134000D02*
X565000D01*
Y132000D01*
X567000D01*
Y134000D01*
D02*
G37*
G36*
X543000Y152000D02*
X541000D01*
Y150000D01*
X543000D01*
Y152000D01*
D02*
G37*
G36*
X531000D02*
X529000D01*
Y151500D01*
Y151250D01*
Y150000D01*
X531000D01*
Y152000D01*
D02*
G37*
G36*
X529000Y130000D02*
X525000D01*
Y128000D01*
X529000D01*
Y130000D01*
D02*
G37*
G36*
X537000D02*
X531000D01*
Y124000D01*
X537000D01*
Y124250D01*
Y130000D01*
D02*
G37*
G36*
X535000Y122000D02*
X533000D01*
Y120000D01*
X535000D01*
Y122000D01*
D02*
G37*
G36*
X539000Y120000D02*
X537000D01*
Y118000D01*
X539000D01*
Y116000D01*
X541000D01*
Y118000D01*
X539000D01*
Y120000D01*
D02*
G37*
%LPD*%
G36*
X535000Y126000D02*
X533000D01*
Y128000D01*
X535000D01*
Y126000D01*
D02*
G37*
%LPC*%
G36*
X577000D02*
X567000D01*
Y116000D01*
X577000D01*
Y126000D01*
D02*
G37*
%LPD*%
G36*
X575000Y118000D02*
X569000D01*
Y124000D01*
X575000D01*
Y118000D01*
D02*
G37*
D11*
X617250Y460453D02*
Y455454D01*
X616250Y454455D01*
X614251D01*
X613251Y455454D01*
Y460453D01*
X611252Y454455D02*
X609253D01*
X610252D01*
Y460453D01*
X611252Y459453D01*
D12*
X617874Y410000D02*
G03*
X617874Y410000I-394J0D01*
G01*
D28*
X505079Y224921D02*
X614921D01*
X505079D02*
Y439094D01*
X614921D01*
Y224921D02*
Y439094D01*
M02*
