M48
;Layer_Color=9474304
;FILE_FORMAT=2:4
INCH,TZ
;TYPE=PLATED
T1F00S00C0.0280
T2F00S00C0.0335
T3F00S00C0.0409
%
T01
X48000Y24200
X54017Y23183
X54817Y23983
X55383Y23417
X53000Y29400
X56000Y32000
X57000
X56800Y40400
X55200
T02
X63500Y18000
Y19000
X61750
Y18000
X60000
Y19000
X56950Y20800
X55950
X54950
X53950
X52950
X51950
X50950
X47750Y18750
Y17750
Y16750
Y15750
X48250Y29000
Y30000
Y33500
Y34500
Y38250
Y39250
X54450Y42950
X55450
X56450
X57450
T03
X51000Y23000
Y24000
Y25000
Y26000
Y27000
Y28000
Y29000
Y30000
Y31000
X61000
Y30000
Y29000
Y28000
Y27000
Y26000
Y25000
Y24000
Y23000
Y32000
Y33000
Y34000
Y35000
Y36000
Y37000
Y38000
Y39000
Y40000
Y41000
X51000
Y40000
Y39000
Y38000
Y37000
Y36000
Y35000
Y34000
Y33000
Y32000
M30
